<?xml version="1.0" encoding="UTF-8"?>
<svg id="Layer_2" data-name="Layer 2" xmlns="http://www.w3.org/2000/svg" viewBox="0 0 104.77 127.9">
  <g id="Layer_1-2" data-name="Layer 1">
    <g fill="currentColor">
      <path d="M103.35,31.83c.63-.36,1.42.1,1.42.83v79.97c0,4.95-2.66,9.53-6.95,11.97l-5.62,3.19c-.64.36-1.42-.1-1.42-.83l.32-68.02c0-.61-.23-1.17-.65-1.6-.42-.43-1.01-.67-1.6-.67-.38,0-.76.1-1.1.29l-35.01,19.61c-.29.16-.64.16-.93,0l-33.27-18.72c-.45-.26-.96-.39-1.48-.39-1.66,0-3.01,1.35-3.01,3.01l-.03,23.17c0,.8.43,1.55,1.12,1.95l20.53,11.99c.29.17.47.49.47.83l-.09,13.94c0,.74-.82,1.19-1.45.8l-17.49-10.77c-.32-.2-.69-.3-1.07-.3-1.13,0-2.04.91-2.04,2.04l-.03,22.83c0,.73-.8,1.19-1.43.82l-5.43-3.19c-4.18-2.46-6.77-7-6.78-9.17l-.33-81.76c0-.4.01-.74.03-1.03.05-.7.81-1.1,1.42-.76l50.26,28.72c.17.1.35.14.54.14s.38-.05.55-.15c.07-.04.14-.09.2-.14l50.36-28.59Z"/>
      <g>
        <path d="M48.56,50.56L2.87,23.94c-.15-.09-.14-.23-.12-.3.02-.07.08-.2.26-.2h19.73c.07,0,.14.03.19.08l25.63,27.03Z"/>
        <path d="M101.9,23.93l-45.1,26.47,25.2-26.88c.05-.05.12-.08.19-.08h19.58c.18,0,.23.12.25.19.02.07.03.21-.12.3Z"/>
        <path d="M50.67,45.56l-23.28-27.94c-.09-.11-.08-.27.03-.37L46.55.07c.05-.05.11-.07.17-.07.1,0,.25.07.27.24l3.68,45.32Z"/>
        <path d="M77.37,17.62l-23.28,27.94L57.77.24c.02-.18.17-.24.27-.24.07,0,.12.02.17.07l19.13,17.18c.11.1.12.26.03.37Z"/>
      </g>
      <g>
        <path d="M42.3,81.31c-.35.9-.78,1.74-1.28,2.51l-13.45,1.15c-.11,0-.23.01-.34.01-1.33,0-2.56-.66-3.27-1.77-1.49-2.33-2.42-5.13-2.67-8.1-.19-2.22,0-4.39.56-6.44l20.45,12.64Z"/>
        <path d="M83.47,75.12c-.26,2.97-1.18,5.78-2.67,8.1-.71,1.11-1.93,1.77-3.27,1.77-.11,0-.22,0-.34-.01l-13.45-1.15c-.49-.77-.92-1.61-1.28-2.51l20.45-12.64c.56,2.05.75,4.22.56,6.44Z"/>
      </g>
    </g>
  </g>
</svg>
